<?xml version="1.0" encoding="UTF-8" standalone="no"?>
<svg
   xmlns:dc="http://purl.org/dc/elements/1.1/"
   xmlns:cc="http://creativecommons.org/ns#"
   xmlns:rdf="http://www.w3.org/1999/02/22-rdf-syntax-ns#"
   xmlns:svg="http://www.w3.org/2000/svg"
   xmlns="http://www.w3.org/2000/svg"
   xmlns:sodipodi="http://sodipodi.sourceforge.net/DTD/sodipodi-0.dtd"
   xmlns:inkscape="http://www.inkscape.org/namespaces/inkscape"
   width="48"
   viewBox="0 0 13.546667 13.546667"
   height="48"
   version="1.1"
   id="svg3834"
   sodipodi:docname="audio-tag-analyzer.svg"
   inkscape:version="0.92.3 (2405546, 2018-03-11)">
  <title
     id="title395">Audio Tag Analyzer</title>
  <metadata
     id="metadata3838">
    <rdf:RDF>
      <cc:Work
         rdf:about="">
        <dc:format>image/svg+xml</dc:format>
        <dc:type
           rdf:resource="http://purl.org/dc/dcmitype/StillImage" />
        <dc:title>Audio Tag Analyzer</dc:title>
        <dc:creator>
          <cc:Agent>
            <dc:title>Borewit</dc:title>
          </cc:Agent>
        </dc:creator>
        <dc:date>2018-08-26</dc:date>
      </cc:Work>
    </rdf:RDF>
  </metadata>
  <sodipodi:namedview
     pagecolor="#ffffff"
     bordercolor="#666666"
     borderopacity="1"
     objecttolerance="10"
     gridtolerance="10"
     guidetolerance="10"
     inkscape:pageopacity="0"
     inkscape:pageshadow="2"
     inkscape:window-width="1920"
     inkscape:window-height="1016"
     id="namedview3836"
     showgrid="false"
     inkscape:snap-text-baseline="true"
     inkscape:zoom="11.313708"
     inkscape:cx="-0.21997121"
     inkscape:cy="25.98252"
     inkscape:window-x="0"
     inkscape:window-y="27"
     inkscape:window-maximized="1"
     inkscape:current-layer="svg3834"
     inkscape:snap-grids="true" />
  <defs
     id="defs3820" />
  <text
     x="3.7679999"
     y="6.842"
     font-style="italic"
     word-spacing="0"
     line-height="125%"
     font-weight="bold"
     letter-spacing="0"
     font-size="14.387"
     id="text3824"
     style="font-style:italic;font-weight:bold;font-size:14.38700008px;line-height:120.00000477%;font-family:'URW Chancery L';letter-spacing:0;word-spacing:0">
    <tspan
       x="3.7679999"
       y="6.842"
       id="tspan3822" />
  </text>
  <style
     id="style292"
     type="text/css">
	.st0{fill:#FFFFFF;}
	.st1{fill:#446688;}
	.st2{fill:#FF8000;}
	.st3{fill:#AACCEE;}
	.st4{fill:#99AABB;}
	.st5{fill:#667788;}
	.st6{fill:#FBB110;}
	.st7{fill:#2FA1C2;}
	.st8{fill:#778899;}
	.st9{fill-rule:evenodd;clip-rule:evenodd;fill:#FE9B39;}
	.st10{fill-rule:evenodd;clip-rule:evenodd;fill:#2FA1C2;}
</style>
  <g
     id="g343"
     transform="matrix(0.15858637,0,0,0.15858637,33.879968,-11.384948)">
    <g
       id="background" />
    <g
       id="icons">
      <g
         id="g297" />
      <g
         id="g301" />
      <g
         id="g305" />
      <g
         id="g309" />
      <g
         id="g313">
        <path
           id="path311"
           d="m 49.1,44.5 c 0.7,1.1 0.4,2.5 -0.7,3.2 l -3.3,2.2 C 44,50.6 42.6,50.3 41.9,49.2 L 30.5,31.9 c -0.7,-1.1 -0.4,-2.5 0.7,-3.2 l 3.3,-2.2 c 1.1,-0.7 2.5,-0.4 3.2,0.7 z"
           class="st2"
           inkscape:connector-curvature="0"
           style="fill:#ff8000" />
      </g>
      <g
         id="g317">
        <path
           id="path315"
           d="M 25.8,32.6 C 20.3,32.6 15.1,29.8 12,25.1 7.1,17.5 9.1,7.4 16.5,2.6 19.1,0.9 22.1,0 25.2,0 30.8,0 35.9,2.8 39,7.5 c 4.9,7.6 2.9,17.7 -4.5,22.5 -2.6,1.7 -5.6,2.6 -8.7,2.6 z M 25.2,4.1 c -2.3,0 -4.5,0.7 -6.4,1.9 -5.5,3.6 -7,11.1 -3.3,16.8 2.3,3.5 6.1,5.6 10.3,5.6 2.3,0 4.5,-0.7 6.4,-1.9 5.5,-3.6 7,-11.1 3.3,-16.8 C 33.2,6.2 29.3,4.1 25.2,4.1 Z"
           class="st1"
           inkscape:connector-curvature="0"
           style="fill:#446688" />
      </g>
    </g>
  </g>
  <path
     id="path446"
     d="m 8.3865937,0.28568175 c -0.6705702,0 -1.6072022,0.38763161 -2.0813616,0.86179115 L 0.63783837,6.8148613 c -0.47415486,0.4741597 -0.47415486,1.25029 0,1.7244453 L 5.0116827,12.908826 c 0.4741549,0.474159 1.249423,0.474159 1.7235777,0 L 12.402653,7.2414313 C 12.876813,6.767276 13.264445,5.8306434 13.264445,5.1600738 V 1.5030914 c 0,-0.67057011 -0.547708,-1.21913936 -1.218273,-1.21913936 H 8.3883234 M 10.425555,1.9062959 c 0.671867,0 1.216977,0.5446785 1.216977,1.2169781 0,0.671864 -0.544678,1.2169738 -1.216977,1.2169738 -0.6718648,0 -1.2169743,-0.5446739 -1.2169743,-1.2169738 0,-0.6718683 0.5446735,-1.2169781 1.2169743,-1.2169781 M 7.6675703,5.0134106 C 7.77443,5.0324191 7.8535974,5.1332558 7.8535974,5.2686621 l -0.00908,3.5142147 c -0.03507,0.262171 -0.2565556,0.511361 -0.5771326,0.5991887 -0.4019058,0.1103097 -0.796893,-0.073121 -0.8829849,-0.402342 -0.086097,-0.3287952 0.16526,-0.6848502 0.567171,-0.7951677 0.222803,-0.060995 0.4378145,-0.023791 0.604809,0.068353 V 6.1226619 L 5.4728571,6.7114666 5.4637713,9.4110502 C 5.4287075,9.673221 5.2080843,9.9224122 4.8875118,10.010234 4.4856011,10.120552 4.0897471,9.9362544 4.003655,9.6070287 3.9175633,9.2782342 4.1689197,8.9221803 4.5708258,8.8118616 4.7936287,8.7508637 5.0086453,8.78807 5.1756398,8.8802195 V 6.0240256 c 0,-0.1799754 0.1323838,-0.3655701 0.297644,-0.412294 l 2.1951401,-0.599184"
     inkscape:connector-curvature="0"
     style="fill-opacity:1;stroke-width:0.43262538;fill:#800000" />
</svg>
