<?xml version="1.0" standalone="no"?>
<!DOCTYPE svg PUBLIC "-//W3C//DTD SVG 20010904//EN"
 "http://www.w3.org/TR/2001/REC-SVG-20010904/DTD/svg10.dtd">
<svg version="1.0" xmlns="http://www.w3.org/2000/svg"
 width="700.000000pt" height="700.000000pt" viewBox="0 0 700.000000 700.000000"
 preserveAspectRatio="xMidYMid meet">
<metadata>
Created by potrace 1.11, written by Peter Selinger 2001-2013
</metadata>
<g transform="translate(0.000000,700.000000) scale(0.100000,-0.100000)"
fill="#000000" stroke="none">
<path d="M4357 6854 c-1 -1 -42 -4 -92 -7 -304 -18 -707 -183 -945 -387 -30
-26 -728 -720 -1550 -1542 -1595 -1596 -1545 -1543 -1591 -1688 -27 -86 -29
-100 -29 -202 -1 -108 19 -189 73 -293 39 -78 70 -109 1221 -1260 650 -649
1203 -1196 1229 -1214 115 -79 223 -111 367 -111 144 0 264 40 375 125 22 16
719 709 1550 1540 1406 1405 1516 1517 1581 1615 121 182 237 448 273 630 6
30 13 69 16 85 4 17 9 68 13 115 8 101 7 2034 -2 2069 -35 150 -84 241 -180
337 -114 114 -255 177 -406 183 -66 3 -1900 7 -1903 5z m1188 -860 c274 -70
467 -317 467 -599 1 -49 -2 -101 -5 -115 -40 -193 -138 -333 -300 -433 -235
-144 -548 -109 -747 83 -75 73 -95 99 -138 185 -59 119 -77 282 -45 420 47
201 226 393 424 451 111 33 233 36 344 8z m-1537 -1609 c17 -14 34 -38 40 -53
15 -44 8 -1865 -7 -1922 -7 -24 -26 -62 -41 -85 -207 -298 -703 -224 -705 105
0 76 14 116 67 188 57 77 167 143 268 160 74 12 183 1 232 -24 16 -8 32 -13
36 -10 6 3 9 1027 3 1084 -1 9 -6 10 -19 3 -11 -6 -30 -12 -43 -15 -13 -2 -58
-14 -99 -26 -41 -12 -88 -25 -105 -30 -16 -4 -151 -42 -300 -85 -148 -42 -277
-78 -285 -80 -84 -22 -207 -59 -213 -65 -5 -4 -10 -324 -11 -711 -3 -621 -6
-709 -20 -748 -44 -119 -169 -220 -311 -249 -288 -60 -519 178 -400 412 90
179 324 271 515 203 l65 -23 0 760 0 761 26 50 c40 75 79 101 205 136 60 16
158 44 218 60 60 17 116 32 125 34 9 2 133 36 276 76 321 89 427 117 442 118
6 1 25 -10 41 -24z"/>
</g>
</svg>
